<?xml version="1.0" encoding="UTF-8" standalone="no"?>
<svg
   xmlns:dc="http://purl.org/dc/elements/1.1/"
   xmlns:cc="http://creativecommons.org/ns#"
   xmlns:rdf="http://www.w3.org/1999/02/22-rdf-syntax-ns#"
   xmlns:svg="http://www.w3.org/2000/svg"
   xmlns="http://www.w3.org/2000/svg"
   xmlns:sodipodi="http://sodipodi.sourceforge.net/DTD/sodipodi-0.dtd"
   xmlns:inkscape="http://www.inkscape.org/namespaces/inkscape"
   data-v-fde0c5aa=""
   viewBox="0 0 300 300"
   class="iconLeft"
   version="1.1"
   id="svg26"
   sodipodi:docname="default.svg"
   inkscape:version="0.92.5 (2060ec1f9f, 2020-04-08)">
  <metadata
     id="metadata30">
    <rdf:RDF>
      <cc:Work
         rdf:about="">
        <dc:format>image/svg+xml</dc:format>
        <dc:type
           rdf:resource="http://purl.org/dc/dcmitype/StillImage" />
      </cc:Work>
    </rdf:RDF>
  </metadata>
  <sodipodi:namedview
     pagecolor="#ffffff"
     bordercolor="#666666"
     borderopacity="1"
     objecttolerance="10"
     gridtolerance="10"
     guidetolerance="10"
     inkscape:pageopacity="0"
     inkscape:pageshadow="2"
     inkscape:window-width="3840"
     inkscape:window-height="2066"
     id="namedview28"
     showgrid="false"
     inkscape:zoom="0.78666667"
     inkscape:cx="150"
     inkscape:cy="150"
     inkscape:window-x="-11"
     inkscape:window-y="-11"
     inkscape:window-maximized="1"
     inkscape:current-layer="svg26" />
  <!---->
  <defs
     data-v-fde0c5aa=""
     id="defs2">
    <!---->
  </defs>
  <defs
     data-v-fde0c5aa=""
     id="defs11">
    <linearGradient
       data-v-fde0c5aa=""
       gradientTransform="rotate(25)"
       id="ba8a5cb5-e0aa-4339-9282-fe2b3e55c141"
       x1="0%"
       y1="0%"
       x2="100%"
       y2="0%">
      <stop
         data-v-fde0c5aa=""
         offset="0%"
         stop-color="#f41857"
         stop-opacity="1"
         id="stop6" />
      <stop
         data-v-fde0c5aa=""
         offset="100%"
         stop-color="#FF5232"
         stop-opacity="1"
         id="stop8" />
    </linearGradient>
  </defs>
  <g
     data-v-fde0c5aa=""
     id="3d8fb751-de21-4372-b88a-e5e7ee45e92c"
     fill="url(#ba8a5cb5-e0aa-4339-9282-fe2b3e55c141)"
     transform="matrix(1.2331061201101667,0,0,1.2331061201101667,106.6755857928299,137.66893938688915)">
    <path
       d="M-0.05 16.88L-0.55 16.08L-0.55 16.08Q0.08 15.67 0.46 15.24L0.46 15.24L0.46 15.24Q0.84 14.81 1.05 14.32L1.05 14.32L1.05 14.32Q1.26 13.83 1.33 13.28L1.33 13.28L1.33 13.28Q1.39 12.72 1.39 12.07L1.39 12.07L1.39 3.63L3.10 3.63L3.10 11.59L3.10 11.59Q3.10 12.48 2.95 13.25L2.95 13.25L2.95 13.25Q2.80 14.02 2.44 14.68L2.44 14.68L2.44 14.68Q2.08 15.35 1.48 15.90L1.48 15.90L1.48 15.90Q0.88 16.45-0.05 16.88L-0.05 16.88ZM8.71 13.78L8.71 13.78L8.71 13.78Q7.85 13.78 7.20 13.49L7.20 13.49L7.20 13.49Q6.55 13.21 6.10 12.72L6.10 12.72L6.10 12.72Q5.66 12.23 5.43 11.59L5.43 11.59L5.43 11.59Q5.20 10.94 5.20 10.23L5.20 10.23L5.20 10.23Q5.20 9.40 5.50 8.68L5.50 8.68L5.50 8.68Q5.79 7.96 6.32 7.42L6.32 7.42L6.32 7.42Q6.85 6.88 7.58 6.57L7.58 6.57L7.58 6.57Q8.31 6.26 9.19 6.26L9.19 6.26L9.19 6.26Q10.04 6.26 10.70 6.55L10.70 6.55L10.70 6.55Q11.35 6.84 11.80 7.33L11.80 7.33L11.80 7.33Q12.24 7.82 12.47 8.47L12.47 8.47L12.47 8.47Q12.70 9.11 12.70 9.83L12.70 9.83L12.70 9.83Q12.70 10.66 12.40 11.39L12.40 11.39L12.40 11.39Q12.11 12.11 11.57 12.64L11.57 12.64L11.57 12.64Q11.04 13.17 10.31 13.48L10.31 13.48L10.31 13.48Q9.58 13.78 8.71 13.78ZM9.00 12.60L9.00 12.60L9.00 12.60Q9.43 12.60 9.80 12.42L9.80 12.42L9.80 12.42Q10.16 12.24 10.42 11.91L10.42 11.91L10.42 11.91Q10.68 11.59 10.82 11.14L10.82 11.14L10.82 11.14Q10.96 10.68 10.96 10.14L10.96 10.14L10.96 10.14Q10.96 9.60 10.82 9.12L10.82 9.12L10.82 9.12Q10.68 8.63 10.42 8.26L10.42 8.26L10.42 8.26Q10.15 7.89 9.77 7.67L9.77 7.67L9.77 7.67Q9.39 7.44 8.90 7.44L8.90 7.44L8.90 7.44Q8.46 7.44 8.09 7.63L8.09 7.63L8.09 7.63Q7.73 7.81 7.48 8.14L7.48 8.14L7.48 8.14Q7.22 8.47 7.08 8.92L7.08 8.92L7.08 8.92Q6.93 9.38 6.93 9.92L6.93 9.92L6.93 9.92Q6.93 10.46 7.07 10.94L7.07 10.94L7.07 10.94Q7.21 11.43 7.48 11.80L7.48 11.80L7.48 11.80Q7.75 12.17 8.13 12.38L8.13 12.38L8.13 12.38Q8.51 12.60 9.00 12.60ZM14.55 13.64L14.55 6.40L15.89 6.40L16.12 8.56L16.12 8.56Q16.21 8.38 16.32 8.19L16.32 8.19L16.32 8.19Q16.42 8.00 16.52 7.83L16.52 7.83L16.52 7.83Q16.63 7.66 16.71 7.51L16.71 7.51L16.71 7.51Q16.80 7.37 16.86 7.27L16.86 7.27L16.86 7.27Q17.01 7.06 17.19 6.87L17.19 6.87L17.19 6.87Q17.37 6.69 17.58 6.55L17.58 6.55L17.58 6.55Q17.79 6.42 18.04 6.34L18.04 6.34L18.04 6.34Q18.29 6.26 18.57 6.26L18.57 6.26L18.57 6.26Q18.77 6.26 18.97 6.31L18.97 6.31L18.97 6.31Q19.17 6.36 19.30 6.46L19.30 6.46L19.13 7.98L19.13 7.98Q19.00 7.95 18.84 7.94L18.84 7.94L18.84 7.94Q18.68 7.93 18.55 7.93L18.55 7.93L18.55 7.93Q18.11 7.93 17.77 8.06L17.77 8.06L17.77 8.06Q17.42 8.18 17.15 8.40L17.15 8.40L17.15 8.40Q16.87 8.63 16.64 8.93L16.64 8.93L16.64 8.93Q16.41 9.23 16.20 9.58L16.20 9.58L16.20 13.64L14.55 13.64ZM25.55 11.56L25.55 7.75L25.55 7.75Q25.10 7.55 24.75 7.50L24.75 7.50L24.75 7.50Q24.40 7.44 24.17 7.44L24.17 7.44L24.17 7.44Q23.62 7.44 23.18 7.64L23.18 7.64L23.18 7.64Q22.75 7.84 22.46 8.19L22.46 8.19L22.46 8.19Q22.16 8.54 22.01 9.02L22.01 9.02L22.01 9.02Q21.85 9.50 21.85 10.07L21.85 10.07L21.85 10.07Q21.85 10.58 21.98 11.03L21.98 11.03L21.98 11.03Q22.11 11.47 22.35 11.81L22.35 11.81L22.35 11.81Q22.59 12.14 22.93 12.33L22.93 12.33L22.93 12.33Q23.27 12.52 23.69 12.52L23.69 12.52L23.69 12.52Q24.18 12.52 24.65 12.27L24.65 12.27L24.65 12.27Q25.12 12.01 25.55 11.56L25.55 11.56ZM25.55 6.43L25.55 2.69L27.21 2.69L27.21 13.64L25.85 13.64L25.63 12.43L25.63 12.43Q25.39 12.65 25.10 12.89L25.10 12.89L25.10 12.89Q24.82 13.13 24.49 13.32L24.49 13.32L24.49 13.32Q24.15 13.52 23.77 13.65L23.77 13.65L23.77 13.65Q23.38 13.78 22.94 13.78L22.94 13.78L22.94 13.78Q22.29 13.78 21.77 13.49L21.77 13.49L21.77 13.49Q21.25 13.20 20.88 12.72L20.88 12.72L20.88 12.72Q20.51 12.24 20.32 11.61L20.32 11.61L20.32 11.61Q20.13 10.99 20.13 10.33L20.13 10.33L20.13 10.33Q20.13 9.45 20.45 8.71L20.45 8.71L20.45 8.71Q20.77 7.96 21.32 7.42L21.32 7.42L21.32 7.42Q21.88 6.88 22.62 6.57L22.62 6.57L22.62 6.57Q23.37 6.26 24.22 6.26L24.22 6.26L24.22 6.26Q24.61 6.26 24.95 6.32L24.95 6.32L24.95 6.32Q25.30 6.37 25.55 6.43L25.55 6.43ZM33.40 12.58L33.40 12.58L33.40 12.58Q33.22 12.73 32.97 12.94L32.97 12.94L32.97 12.94Q32.72 13.15 32.42 13.33L32.42 13.33L32.42 13.33Q32.12 13.52 31.76 13.65L31.76 13.65L31.76 13.65Q31.40 13.78 31.00 13.78L31.00 13.78L31.00 13.78Q30.60 13.78 30.25 13.63L30.25 13.63L30.25 13.63Q29.91 13.49 29.65 13.22L29.65 13.22L29.65 13.22Q29.39 12.96 29.25 12.60L29.25 12.60L29.25 12.60Q29.10 12.23 29.10 11.79L29.10 11.79L29.10 11.79Q29.10 11.32 29.29 10.88L29.29 10.88L29.29 10.88Q29.48 10.43 29.92 10.08L29.92 10.08L29.92 10.08Q30.36 9.73 31.08 9.52L31.08 9.52L31.08 9.52Q31.81 9.30 32.87 9.30L32.87 9.30L33.37 9.30L33.37 8.74L33.37 8.74Q33.37 8.44 33.27 8.20L33.27 8.20L33.27 8.20Q33.17 7.96 32.98 7.79L32.98 7.79L32.98 7.79Q32.80 7.62 32.54 7.53L32.54 7.53L32.54 7.53Q32.29 7.44 31.97 7.44L31.97 7.44L31.97 7.44Q31.73 7.44 31.45 7.50L31.45 7.50L31.45 7.50Q31.17 7.56 30.89 7.66L30.89 7.66L30.89 7.66Q30.62 7.77 30.36 7.91L30.36 7.91L30.36 7.91Q30.10 8.05 29.89 8.21L29.89 8.21L29.77 8.14L29.46 6.99L29.46 6.99Q30.28 6.56 30.99 6.41L30.99 6.41L30.99 6.41Q31.71 6.26 32.33 6.26L32.33 6.26L32.33 6.26Q32.97 6.26 33.47 6.39L33.47 6.39L33.47 6.39Q33.97 6.52 34.32 6.79L34.32 6.79L34.32 6.79Q34.67 7.06 34.85 7.48L34.85 7.48L34.85 7.48Q35.03 7.89 35.03 8.46L35.03 8.46L35.03 11.81L35.03 11.81Q35.03 11.91 35.05 12.03L35.05 12.03L35.05 12.03Q35.07 12.15 35.12 12.26L35.12 12.26L35.12 12.26Q35.17 12.37 35.27 12.45L35.27 12.45L35.27 12.45Q35.37 12.52 35.53 12.52L35.53 12.52L35.53 12.52Q35.63 12.52 35.77 12.50L35.77 12.50L35.77 12.50Q35.90 12.47 36.04 12.41L36.04 12.41L36.04 13.23L36.04 13.23Q35.67 13.48 35.30 13.63L35.30 13.63L35.30 13.63Q34.94 13.78 34.59 13.78L34.59 13.78L34.59 13.78Q34.32 13.78 34.12 13.68L34.12 13.68L34.12 13.68Q33.92 13.58 33.78 13.41L33.78 13.41L33.78 13.41Q33.65 13.24 33.55 13.03L33.55 13.03L33.55 13.03Q33.46 12.81 33.40 12.58ZM33.37 11.70L33.37 10.11L32.94 10.11L32.94 10.11Q32.23 10.11 31.80 10.21L31.80 10.21L31.80 10.21Q31.36 10.31 31.12 10.48L31.12 10.48L31.12 10.48Q30.88 10.66 30.81 10.89L30.81 10.89L30.81 10.89Q30.73 11.12 30.73 11.38L30.73 11.38L30.73 11.38Q30.73 11.66 30.81 11.87L30.81 11.87L30.81 11.87Q30.89 12.09 31.03 12.23L31.03 12.23L31.03 12.23Q31.17 12.37 31.36 12.45L31.36 12.45L31.36 12.45Q31.55 12.52 31.77 12.52L31.77 12.52L31.77 12.52Q31.94 12.52 32.12 12.49L32.12 12.49L32.12 12.49Q32.29 12.45 32.49 12.35L32.49 12.35L32.49 12.35Q32.68 12.26 32.90 12.10L32.90 12.10L32.90 12.10Q33.12 11.94 33.37 11.70L33.37 11.70ZM37.52 13.64L37.52 6.40L38.86 6.40L39.09 7.64L39.09 7.64Q39.33 7.42 39.63 7.17L39.63 7.17L39.63 7.17Q39.93 6.93 40.28 6.73L40.28 6.73L40.28 6.73Q40.64 6.53 41.03 6.40L41.03 6.40L41.03 6.40Q41.43 6.26 41.85 6.26L41.85 6.26L41.85 6.26Q42.35 6.26 42.76 6.45L42.76 6.45L42.76 6.45Q43.16 6.64 43.45 6.98L43.45 6.98L43.45 6.98Q43.74 7.31 43.89 7.79L43.89 7.79L43.89 7.79Q44.05 8.26 44.05 8.82L44.05 8.82L44.05 13.64L42.39 13.64L42.39 9.02L42.39 9.02Q42.39 8.65 42.29 8.37L42.29 8.37L42.29 8.37Q42.18 8.09 42.00 7.90L42.00 7.90L42.00 7.90Q41.82 7.72 41.57 7.62L41.57 7.62L41.57 7.62Q41.32 7.53 41.04 7.53L41.04 7.53L41.04 7.53Q40.53 7.53 40.08 7.79L40.08 7.79L40.08 7.79Q39.63 8.05 39.17 8.47L39.17 8.47L39.17 13.64L37.52 13.64ZM51.28 3.63L51.28 13.64L49.58 13.64L49.58 3.63L51.28 3.63ZM58.06 13.64L55.95 13.64L51.91 8.59L55.92 3.63L57.68 3.63L53.56 8.29L58.06 13.64ZM59.65 13.64L59.65 6.40L60.99 6.40L61.22 8.56L61.22 8.56Q61.32 8.38 61.42 8.19L61.42 8.19L61.42 8.19Q61.52 8.00 61.63 7.83L61.63 7.83L61.63 7.83Q61.73 7.66 61.82 7.51L61.82 7.51L61.82 7.51Q61.91 7.37 61.97 7.27L61.97 7.27L61.97 7.27Q62.11 7.06 62.29 6.87L62.29 6.87L62.29 6.87Q62.47 6.69 62.69 6.55L62.69 6.55L62.69 6.55Q62.90 6.42 63.14 6.34L63.14 6.34L63.14 6.34Q63.39 6.26 63.68 6.26L63.68 6.26L63.68 6.26Q63.88 6.26 64.07 6.31L64.07 6.31L64.07 6.31Q64.27 6.36 64.41 6.46L64.41 6.46L64.23 7.98L64.23 7.98Q64.11 7.95 63.94 7.94L63.94 7.94L63.94 7.94Q63.78 7.93 63.65 7.93L63.65 7.93L63.65 7.93Q63.21 7.93 62.87 8.06L62.87 8.06L62.87 8.06Q62.53 8.18 62.25 8.40L62.25 8.40L62.25 8.40Q61.97 8.63 61.75 8.93L61.75 8.93L61.75 8.93Q61.52 9.23 61.30 9.58L61.30 9.58L61.30 13.64L59.65 13.64ZM65.95 13.64L65.95 6.40L67.61 6.40L67.61 13.64L65.95 13.64ZM66.78 4.97L66.78 4.97L66.78 4.97Q66.56 4.97 66.38 4.90L66.38 4.90L66.38 4.90Q66.20 4.83 66.07 4.70L66.07 4.70L66.07 4.70Q65.93 4.58 65.86 4.41L65.86 4.41L65.86 4.41Q65.79 4.24 65.79 4.04L65.79 4.04L65.79 4.04Q65.79 3.83 65.87 3.66L65.87 3.66L65.87 3.66Q65.95 3.49 66.09 3.35L66.09 3.35L66.09 3.35Q66.23 3.22 66.41 3.14L66.41 3.14L66.41 3.14Q66.60 3.07 66.82 3.07L66.82 3.07L66.82 3.07Q67.03 3.07 67.21 3.14L67.21 3.14L67.21 3.14Q67.39 3.22 67.52 3.35L67.52 3.35L67.52 3.35Q67.65 3.47 67.72 3.65L67.72 3.65L67.72 3.65Q67.80 3.82 67.80 4.02L67.80 4.02L67.80 4.02Q67.80 4.22 67.72 4.40L67.72 4.40L67.72 4.40Q67.64 4.57 67.50 4.70L67.50 4.70L67.50 4.70Q67.36 4.83 67.18 4.90L67.18 4.90L67.18 4.90Q66.99 4.97 66.78 4.97ZM69.45 13.30L69.75 12.06L69.87 11.98L69.87 11.98Q70.14 12.13 70.43 12.24L70.43 12.24L70.43 12.24Q70.72 12.36 71.00 12.44L71.00 12.44L71.00 12.44Q71.29 12.52 71.57 12.56L71.57 12.56L71.57 12.56Q71.84 12.60 72.08 12.60L72.08 12.60L72.08 12.60Q72.70 12.60 73.05 12.34L73.05 12.34L73.05 12.34Q73.40 12.08 73.40 11.68L73.40 11.68L73.40 11.68Q73.40 11.40 73.24 11.22L73.24 11.22L73.24 11.22Q73.08 11.05 72.82 10.92L72.82 10.92L72.82 10.92Q72.56 10.79 72.22 10.70L72.22 10.70L72.22 10.70Q71.89 10.60 71.53 10.50L71.53 10.50L71.53 10.50Q71.18 10.39 70.85 10.25L70.85 10.25L70.85 10.25Q70.51 10.12 70.25 9.91L70.25 9.91L70.25 9.91Q69.99 9.69 69.83 9.39L69.83 9.39L69.83 9.39Q69.67 9.08 69.67 8.64L69.67 8.64L69.67 8.64Q69.67 8.14 69.88 7.70L69.88 7.70L69.88 7.70Q70.10 7.27 70.50 6.95L70.50 6.95L70.50 6.95Q70.90 6.63 71.47 6.45L71.47 6.45L71.47 6.45Q72.04 6.26 72.75 6.26L72.75 6.26L72.75 6.26Q72.93 6.26 73.16 6.28L73.16 6.28L73.16 6.28Q73.40 6.29 73.65 6.32L73.65 6.32L73.65 6.32Q73.91 6.35 74.17 6.40L74.17 6.40L74.17 6.40Q74.43 6.45 74.66 6.52L74.66 6.52L74.35 7.75L74.20 7.83L74.20 7.83Q74.00 7.73 73.76 7.66L73.76 7.66L73.76 7.66Q73.53 7.58 73.29 7.54L73.29 7.54L73.29 7.54Q73.06 7.49 72.83 7.47L72.83 7.47L72.83 7.47Q72.61 7.44 72.44 7.44L72.44 7.44L72.44 7.44Q71.84 7.44 71.50 7.68L71.50 7.68L71.50 7.68Q71.16 7.92 71.16 8.33L71.16 8.33L71.16 8.33Q71.16 8.61 71.33 8.79L71.33 8.79L71.33 8.79Q71.49 8.97 71.75 9.10L71.75 9.10L71.75 9.10Q72.02 9.22 72.36 9.31L72.36 9.31L72.36 9.31Q72.70 9.41 73.05 9.51L73.05 9.51L73.05 9.51Q73.40 9.62 73.75 9.75L73.75 9.75L73.75 9.75Q74.09 9.89 74.35 10.10L74.35 10.10L74.35 10.10Q74.61 10.32 74.78 10.62L74.78 10.62L74.78 10.62Q74.94 10.93 74.94 11.38L74.94 11.38L74.94 11.38Q74.94 11.89 74.72 12.33L74.72 12.33L74.72 12.33Q74.50 12.77 74.10 13.09L74.10 13.09L74.10 13.09Q73.70 13.41 73.13 13.60L73.13 13.60L73.13 13.60Q72.56 13.78 71.87 13.78L71.87 13.78L71.87 13.78Q71.31 13.78 70.67 13.66L70.67 13.66L70.67 13.66Q70.03 13.54 69.45 13.30L69.45 13.30ZM76.77 13.64L76.77 2.69L78.42 2.69L78.42 7.57L78.42 7.57Q78.67 7.34 78.98 7.11L78.98 7.11L78.98 7.11Q79.28 6.88 79.62 6.69L79.62 6.69L79.62 6.69Q79.96 6.50 80.34 6.38L80.34 6.38L80.34 6.38Q80.71 6.26 81.12 6.26L81.12 6.26L81.12 6.26Q81.61 6.26 82.01 6.45L82.01 6.45L82.01 6.45Q82.41 6.63 82.70 6.97L82.70 6.97L82.70 6.97Q82.99 7.30 83.15 7.77L83.15 7.77L83.15 7.77Q83.30 8.24 83.30 8.82L83.30 8.82L83.30 13.64L81.64 13.64L81.64 9.00L81.64 9.00Q81.64 8.63 81.54 8.36L81.54 8.36L81.54 8.36Q81.44 8.08 81.26 7.90L81.26 7.90L81.26 7.90Q81.08 7.71 80.83 7.62L80.83 7.62L80.83 7.62Q80.58 7.53 80.29 7.53L80.29 7.53L80.29 7.53Q79.79 7.53 79.34 7.79L79.34 7.79L79.34 7.79Q78.89 8.05 78.42 8.47L78.42 8.47L78.42 13.64L76.77 13.64ZM85.59 13.64L85.59 6.40L86.93 6.40L87.16 7.64L87.16 7.64Q87.40 7.42 87.70 7.17L87.70 7.17L87.70 7.17Q88.00 6.93 88.35 6.73L88.35 6.73L88.35 6.73Q88.71 6.53 89.10 6.40L89.10 6.40L89.10 6.40Q89.50 6.26 89.92 6.26L89.92 6.26L89.92 6.26Q90.42 6.26 90.83 6.45L90.83 6.45L90.83 6.45Q91.23 6.64 91.52 6.98L91.52 6.98L91.52 6.98Q91.81 7.31 91.96 7.79L91.96 7.79L91.96 7.79Q92.12 8.26 92.12 8.82L92.12 8.82L92.12 13.64L90.46 13.64L90.46 9.02L90.46 9.02Q90.46 8.65 90.36 8.37L90.36 8.37L90.36 8.37Q90.25 8.09 90.07 7.90L90.07 7.90L90.07 7.90Q89.89 7.72 89.64 7.62L89.64 7.62L89.64 7.62Q89.39 7.53 89.11 7.53L89.11 7.53L89.11 7.53Q88.60 7.53 88.15 7.79L88.15 7.79L88.15 7.79Q87.70 8.05 87.24 8.47L87.24 8.47L87.24 13.64L85.59 13.64ZM98.31 12.58L98.31 12.58L98.31 12.58Q98.14 12.73 97.89 12.94L97.89 12.94L97.89 12.94Q97.64 13.15 97.33 13.33L97.33 13.33L97.33 13.33Q97.03 13.52 96.67 13.65L96.67 13.65L96.67 13.65Q96.31 13.78 95.92 13.78L95.92 13.78L95.92 13.78Q95.51 13.78 95.17 13.63L95.17 13.63L95.17 13.63Q94.82 13.49 94.56 13.22L94.56 13.22L94.56 13.22Q94.31 12.96 94.16 12.60L94.16 12.60L94.16 12.60Q94.01 12.23 94.01 11.79L94.01 11.79L94.01 11.79Q94.01 11.32 94.20 10.88L94.20 10.88L94.20 10.88Q94.39 10.43 94.83 10.08L94.83 10.08L94.83 10.08Q95.27 9.73 96.00 9.52L96.00 9.52L96.00 9.52Q96.72 9.30 97.79 9.30L97.79 9.30L98.29 9.30L98.29 8.74L98.29 8.74Q98.29 8.44 98.18 8.20L98.18 8.20L98.18 8.20Q98.08 7.96 97.90 7.79L97.90 7.79L97.90 7.79Q97.71 7.62 97.46 7.53L97.46 7.53L97.46 7.53Q97.20 7.44 96.89 7.44L96.89 7.44L96.89 7.44Q96.64 7.44 96.36 7.50L96.36 7.50L96.36 7.50Q96.08 7.56 95.81 7.66L95.81 7.66L95.81 7.66Q95.53 7.77 95.27 7.91L95.27 7.91L95.27 7.91Q95.01 8.05 94.81 8.21L94.81 8.21L94.68 8.14L94.37 6.99L94.37 6.99Q95.20 6.56 95.91 6.41L95.91 6.41L95.91 6.41Q96.62 6.26 97.24 6.26L97.24 6.26L97.24 6.26Q97.88 6.26 98.39 6.39L98.39 6.39L98.39 6.39Q98.89 6.52 99.24 6.79L99.24 6.79L99.24 6.79Q99.59 7.06 99.77 7.48L99.77 7.48L99.77 7.48Q99.95 7.89 99.95 8.46L99.95 8.46L99.95 11.81L99.95 11.81Q99.95 11.91 99.97 12.03L99.97 12.03L99.97 12.03Q99.98 12.15 100.03 12.26L100.03 12.26L100.03 12.26Q100.08 12.37 100.18 12.45L100.18 12.45L100.18 12.45Q100.28 12.52 100.45 12.52L100.45 12.52L100.45 12.52Q100.54 12.52 100.68 12.50L100.68 12.50L100.68 12.50Q100.82 12.47 100.95 12.41L100.95 12.41L100.95 13.23L100.95 13.23Q100.58 13.48 100.22 13.63L100.22 13.63L100.22 13.63Q99.85 13.78 99.50 13.78L99.50 13.78L99.50 13.78Q99.23 13.78 99.03 13.68L99.03 13.68L99.03 13.68Q98.83 13.58 98.70 13.41L98.70 13.41L98.70 13.41Q98.56 13.24 98.47 13.03L98.47 13.03L98.47 13.03Q98.38 12.81 98.31 12.58ZM98.29 11.70L98.29 10.11L97.86 10.11L97.86 10.11Q97.15 10.11 96.71 10.21L96.71 10.21L96.71 10.21Q96.28 10.31 96.04 10.48L96.04 10.48L96.04 10.48Q95.80 10.66 95.72 10.89L95.72 10.89L95.72 10.89Q95.64 11.12 95.64 11.38L95.64 11.38L95.64 11.38Q95.64 11.66 95.72 11.87L95.72 11.87L95.72 11.87Q95.81 12.09 95.95 12.23L95.95 12.23L95.95 12.23Q96.09 12.37 96.28 12.45L96.28 12.45L96.28 12.45Q96.47 12.52 96.69 12.52L96.69 12.52L96.69 12.52Q96.85 12.52 97.03 12.49L97.03 12.49L97.03 12.49Q97.21 12.45 97.40 12.35L97.40 12.35L97.40 12.35Q97.60 12.26 97.82 12.10L97.82 12.10L97.82 12.10Q98.03 11.94 98.29 11.70L98.29 11.70ZM103.95 13.64L101.36 6.40L103.20 6.40L104.60 11.04L104.92 12.40L105.05 12.40L105.36 11.04L106.78 6.40L108.35 6.40L104.46 17.31L102.93 17.31L104.46 13.64L103.95 13.64ZM113.69 12.58L113.69 12.58L113.69 12.58Q113.51 12.73 113.26 12.94L113.26 12.94L113.26 12.94Q113.01 13.15 112.71 13.33L112.71 13.33L112.71 13.33Q112.40 13.52 112.04 13.65L112.04 13.65L112.04 13.65Q111.69 13.78 111.29 13.78L111.29 13.78L111.29 13.78Q110.89 13.78 110.54 13.63L110.54 13.63L110.54 13.63Q110.20 13.49 109.94 13.22L109.94 13.22L109.94 13.22Q109.68 12.96 109.54 12.60L109.54 12.60L109.54 12.60Q109.39 12.23 109.39 11.79L109.39 11.79L109.39 11.79Q109.39 11.32 109.58 10.88L109.58 10.88L109.58 10.88Q109.76 10.43 110.21 10.08L110.21 10.08L110.21 10.08Q110.65 9.73 111.37 9.52L111.37 9.52L111.37 9.52Q112.10 9.30 113.16 9.30L113.16 9.30L113.66 9.30L113.66 8.74L113.66 8.74Q113.66 8.44 113.56 8.20L113.56 8.20L113.56 8.20Q113.46 7.96 113.27 7.79L113.27 7.79L113.27 7.79Q113.09 7.62 112.83 7.53L112.83 7.53L112.83 7.53Q112.57 7.44 112.26 7.44L112.26 7.44L112.26 7.44Q112.01 7.44 111.73 7.50L111.73 7.50L111.73 7.50Q111.45 7.56 111.18 7.66L111.18 7.66L111.18 7.66Q110.91 7.77 110.65 7.91L110.65 7.91L110.65 7.91Q110.39 8.05 110.18 8.21L110.18 8.21L110.06 8.14L109.74 6.99L109.74 6.99Q110.57 6.56 111.28 6.41L111.28 6.41L111.28 6.41Q111.99 6.26 112.62 6.26L112.62 6.26L112.62 6.26Q113.26 6.26 113.76 6.39L113.76 6.39L113.76 6.39Q114.26 6.52 114.61 6.79L114.61 6.79L114.61 6.79Q114.96 7.06 115.14 7.48L115.14 7.48L115.14 7.48Q115.32 7.89 115.32 8.46L115.32 8.46L115.32 11.81L115.32 11.81Q115.32 11.91 115.34 12.03L115.34 12.03L115.34 12.03Q115.36 12.15 115.41 12.26L115.41 12.26L115.41 12.26Q115.46 12.37 115.56 12.45L115.56 12.45L115.56 12.45Q115.66 12.52 115.82 12.52L115.82 12.52L115.82 12.52Q115.92 12.52 116.05 12.50L116.05 12.50L116.05 12.50Q116.19 12.47 116.33 12.41L116.33 12.41L116.33 13.23L116.33 13.23Q115.96 13.48 115.59 13.63L115.59 13.63L115.59 13.63Q115.23 13.78 114.88 13.78L114.88 13.78L114.88 13.78Q114.60 13.78 114.41 13.68L114.41 13.68L114.41 13.68Q114.21 13.58 114.07 13.41L114.07 13.41L114.07 13.41Q113.93 13.24 113.84 13.03L113.84 13.03L113.84 13.03Q113.75 12.81 113.69 12.58ZM113.66 11.70L113.66 10.11L113.23 10.11L113.23 10.11Q112.52 10.11 112.09 10.21L112.09 10.21L112.09 10.21Q111.65 10.31 111.41 10.48L111.41 10.48L111.41 10.48Q111.17 10.66 111.09 10.89L111.09 10.89L111.09 10.89Q111.02 11.12 111.02 11.38L111.02 11.38L111.02 11.38Q111.02 11.66 111.10 11.87L111.10 11.87L111.10 11.87Q111.18 12.09 111.32 12.23L111.32 12.23L111.32 12.23Q111.46 12.37 111.65 12.45L111.65 12.45L111.65 12.45Q111.84 12.52 112.06 12.52L112.06 12.52L112.06 12.52Q112.23 12.52 112.40 12.49L112.40 12.49L112.40 12.49Q112.58 12.45 112.78 12.35L112.78 12.35L112.78 12.35Q112.97 12.26 113.19 12.10L113.19 12.10L113.19 12.10Q113.41 11.94 113.66 11.70L113.66 11.70ZM117.80 13.64L117.80 2.69L119.46 2.69L119.46 7.57L119.46 7.57Q119.71 7.34 120.02 7.11L120.02 7.11L120.02 7.11Q120.32 6.88 120.66 6.69L120.66 6.69L120.66 6.69Q121.00 6.50 121.37 6.38L121.37 6.38L121.37 6.38Q121.75 6.26 122.15 6.26L122.15 6.26L122.15 6.26Q122.64 6.26 123.05 6.45L123.05 6.45L123.05 6.45Q123.45 6.63 123.74 6.97L123.74 6.97L123.74 6.97Q124.02 7.30 124.18 7.77L124.18 7.77L124.18 7.77Q124.34 8.24 124.34 8.82L124.34 8.82L124.34 13.64L122.68 13.64L122.68 9.00L122.68 9.00Q122.68 8.63 122.58 8.36L122.58 8.36L122.58 8.36Q122.47 8.08 122.29 7.90L122.29 7.90L122.29 7.90Q122.12 7.71 121.87 7.62L121.87 7.62L121.87 7.62Q121.62 7.53 121.33 7.53L121.33 7.53L121.33 7.53Q120.83 7.53 120.37 7.79L120.37 7.79L120.37 7.79Q119.92 8.05 119.46 8.47L119.46 8.47L119.46 13.64L117.80 13.64Z"
       id="path13" />
  </g>
  <defs
     data-v-fde0c5aa=""
     id="defs21">
    <linearGradient
       data-v-fde0c5aa=""
       gradientTransform="rotate(25)"
       id="0052c8a4-1906-40ab-b0dd-5a2f3d1c1aaa"
       x1="0%"
       y1="0%"
       x2="100%"
       y2="0%">
      <stop
         data-v-fde0c5aa=""
         offset="0%"
         stop-color="#F41857"
         stop-opacity="1"
         id="stop16" />
      <stop
         data-v-fde0c5aa=""
         offset="100%"
         stop-color="#FF5232"
         stop-opacity="1"
         id="stop18" />
    </linearGradient>
  </defs>
  <g
     data-v-fde0c5aa=""
     id="74a9fa75-0afc-40a4-aa11-ffee6277b184"
     stroke="none"
     fill="url(#0052c8a4-1906-40ab-b0dd-5a2f3d1c1aaa)"
     transform="matrix(0.5888594495135906,0,0,0.5888594495135906,37.05541971604503,120.55781935230797)">
    <path
       d="M75.195 72.96a2.716 2.716 0 0 1-2.074-4.467L88.73 50 73.122 31.507a2.716 2.716 0 0 1 4.151-3.504L94.36 48.248a2.715 2.715 0 0 1 0 3.503L77.272 71.995a2.708 2.708 0 0 1-2.077.965zM24.805 72.96a2.71 2.71 0 0 1-2.076-.964L5.641 51.752a2.715 2.715 0 0 1 0-3.503l17.088-20.245a2.716 2.716 0 0 1 4.151 3.503L11.269 50.001l15.609 18.492a2.716 2.716 0 0 1-2.073 4.467zM37.325 72.96a2.715 2.715 0 0 1-2.299-4.156L60.37 28.315a2.715 2.715 0 1 1 4.604 2.881L39.63 71.685a2.714 2.714 0 0 1-2.305 1.275z"
       id="path23" />
  </g>
  <!---->
</svg>
